<?xml version="1.0" encoding="iso-8859-1"?>
<!-- Generator: Adobe Illustrator 19.0.0, SVG Export Plug-In . SVG Version: 6.00 Build 0)  -->
<svg version="1.1" id="Layer_1" xmlns="http://www.w3.org/2000/svg" xmlns:xlink="http://www.w3.org/1999/xlink" x="0px" y="0px"
	 viewBox="0 0 512 512" style="enable-background:new 0 0 512 512;" xml:space="preserve">
<g>
	<g>
		<path d="M269.528,232.02h-21.316c-4.415,0-7.994,3.579-7.994,7.994c0,4.415,3.579,7.994,7.994,7.994h21.316
			c4.415,0,7.994-3.579,7.994-7.994C277.521,235.599,273.942,232.02,269.528,232.02z"/>
	</g>
</g>
<g>
	<g>
		<path d="M269.528,263.994h-21.316c-4.415,0-7.994,3.579-7.994,7.994c0,4.415,3.579,7.994,7.994,7.994h21.316
			c4.415,0,7.994-3.579,7.994-7.994C277.521,267.573,273.942,263.994,269.528,263.994z"/>
	</g>
</g>
<g>
	<g>
		<path d="M269.528,295.968h-21.316c-4.415,0-7.994,3.579-7.994,7.994s3.579,7.994,7.994,7.994h21.316
			c4.415,0,7.994-3.579,7.994-7.994S273.942,295.968,269.528,295.968z"/>
	</g>
</g>
<g>
	<g>
		<path d="M501.342,360.651v-56.689c0-53.969-18.816-104.072-52.982-141.078c-34.984-37.893-83.355-58.761-136.2-58.761
			c-108.529,0-197.128,86.964-199.777,194.868L7.972,351.196c-5.736,2.868-8.853,9.039-7.754,15.358
			c1.098,6.318,6.113,11.077,12.482,11.841l245.218,29.426c0.315,0.037,0.634,0.056,0.953,0.056h237.798
			c8.454,0,15.332-6.878,15.332-15.332v-17.297C512,368.424,507.516,362.633,501.342,360.651z M312.16,120.11
			c41.583,0,78.857,14.021,108.08,38.079c-20.553-7.536-42.63-11.434-65.447-11.434c-49.504,0-97.002,18.236-133.743,51.35
			c-33.465,30.161-55.612,70.42-63.183,114.386l-29.49-13.61C131.082,199.846,212.486,120.11,312.16,120.11z M496.013,391.892
			H259.348L19.817,363.148l100.636-50.318l74.233,34.262c11.671,5.387,23.713,10.04,36.01,13.946
			c5.165,1.641,10.442-2.186,10.442-7.605v-0.01c0-3.466-2.234-6.545-5.537-7.594c-11.683-3.711-23.125-8.135-34.215-13.253
			l-28.445-13.129c13.24-89.802,90.247-156.705,181.852-156.705c35.504,0,69.004,10.26,96.958,29.667
			c21.275,30.525,33.604,68.905,33.604,111.553v13.323h-53.752c-5.632,0-10.197,4.565-10.197,10.197v32.436h-47.962v-32.436
			c0-5.632-4.565-10.197-10.197-10.197h-59.542c-5.632,0-10.197,4.565-10.197,10.197v30.636c-9.105-1.008-18.171-2.442-27.156-4.285
			c-4.933-1.011-9.54,2.795-9.54,7.829c0,3.802,2.681,7.074,6.406,7.836c20.636,4.224,41.684,6.406,62.653,6.406h170.142V391.892z
			 M485.355,333.272v26.645h-47.961v-26.645H485.355z M357.457,333.272v26.645h-31.586c-5.456,0-10.917-0.159-16.375-0.466v-26.18
			H357.457z"/>
	</g>
</g>
<g>
</g>
<g>
</g>
<g>
</g>
<g>
</g>
<g>
</g>
<g>
</g>
<g>
</g>
<g>
</g>
<g>
</g>
<g>
</g>
<g>
</g>
<g>
</g>
<g>
</g>
<g>
</g>
<g>
</g>
</svg>
