<svg width="22" height="11" viewBox="0 0 22 11" version="1.1" xmlns="http://www.w3.org/2000/svg" xmlns:xlink="http://www.w3.org/1999/xlink">
<title>Vector</title>
<desc>Created using Figma</desc>
<g id="Canvas" transform="translate(-3126 -528)">
<g id="Vector">
<use xlink:href="#path0_stroke" transform="translate(3128 530)" fill="#000"/>
</g>
</g>
<defs>
<path id="path0_stroke" d="M 0.920911 -1.18403C 0.26699 -1.69263 -0.675423 -1.57483 -1.18403 -0.920911C -1.69263 -0.26699 -1.57483 0.675423 -0.920911 1.18403L 0.920911 -1.18403ZM 9 7L 8.07909 8.18403L 9 8.90029L 9.92091 8.18403L 9 7ZM 18.9209 1.18403C 19.5748 0.675423 19.6926 -0.26699 19.184 -0.920911C 18.6754 -1.57483 17.733 -1.69263 17.0791 -1.18403L 18.9209 1.18403ZM -0.920911 1.18403L 8.07909 8.18403L 9.92091 5.81597L 0.920911 -1.18403L -0.920911 1.18403ZM 9.92091 8.18403L 18.9209 1.18403L 17.0791 -1.18403L 8.07909 5.81597L 9.92091 8.18403Z"/>
</defs>
</svg>