<svg width="184" height="35" viewBox="0 0 184 35" version="1.1" xmlns="http://www.w3.org/2000/svg" xmlns:xlink="http://www.w3.org/1999/xlink">
<title>Page 1</title>
<desc>Created using Figma</desc>
<g id="Canvas" transform="translate(-5147 482)">
<g id="VISA SUPPORT">
<use xlink:href="#path0_fill" transform="translate(5202 -477)" fill="#FFFFFF"/>
</g>
<g id="Line">
<use xlink:href="#path1_stroke" transform="matrix(6.12323e-17 1 -1 6.12323e-17 5245 -481)" fill="#FFFFFF"/>
</g>
<g id="Ellipse">
<use xlink:href="#path2_fill" transform="translate(5147 -482)" fill="#FFFFFF" fill-opacity="0.34"/>
</g>
</g>
<defs>
<path id="path0_fill" d="M 9.01758 6.15039L 11.1973 6.15039L 6.69727 19L 4.48242 19L 0 6.15039L 2.16211 6.15039L 4.84277 14.1396C 4.9834 14.5205 5.13281 15.0127 5.29102 15.6162C 5.44922 16.2139 5.55176 16.6592 5.59863 16.9521C 5.6748 16.5068 5.79199 15.9912 5.9502 15.4053C 6.1084 14.8193 6.2373 14.3857 6.33691 14.1045L 9.01758 6.15039ZM 12.8936 19L 12.8936 6.15039L 14.9941 6.15039L 14.9941 19L 12.8936 19ZM 25.8047 15.5107C 25.8047 16.6533 25.3916 17.5498 24.5654 18.2002C 23.7393 18.8506 22.5996 19.1758 21.1465 19.1758C 19.6934 19.1758 18.5039 18.9502 17.5781 18.499L 17.5781 16.5127C 18.1641 16.7881 18.7852 17.0049 19.4414 17.1631C 20.1035 17.3213 20.7188 17.4004 21.2871 17.4004C 22.1191 17.4004 22.7314 17.2422 23.124 16.9258C 23.5225 16.6094 23.7217 16.1846 23.7217 15.6514C 23.7217 15.1709 23.54 14.7637 23.1768 14.4297C 22.8135 14.0957 22.0635 13.7002 20.9268 13.2432C 19.7549 12.7686 18.9287 12.2266 18.4482 11.6172C 17.9678 11.0078 17.7275 10.2754 17.7275 9.41992C 17.7275 8.34766 18.1084 7.50391 18.8701 6.88867C 19.6318 6.27344 20.6543 5.96582 21.9375 5.96582C 23.168 5.96582 24.3926 6.23535 25.6113 6.77441L 24.9434 8.48828C 23.8008 8.00781 22.7812 7.76758 21.8848 7.76758C 21.2051 7.76758 20.6895 7.91699 20.3379 8.21582C 19.9863 8.50879 19.8105 8.89844 19.8105 9.38477C 19.8105 9.71875 19.8809 10.0059 20.0215 10.2461C 20.1621 10.4805 20.3936 10.7031 20.7158 10.9141C 21.0381 11.125 21.6182 11.4033 22.4561 11.749C 23.3994 12.1416 24.0908 12.5078 24.5303 12.8477C 24.9697 13.1875 25.292 13.5713 25.4971 13.999C 25.7021 14.4268 25.8047 14.9307 25.8047 15.5107ZM 36.2637 19L 34.9805 15.4316L 30.0674 15.4316L 28.8105 19L 26.5957 19L 31.4033 6.09766L 33.6885 6.09766L 38.4961 19L 36.2637 19ZM 34.4268 13.6211L 33.2227 10.123C 33.1348 9.88867 33.0117 9.51953 32.8535 9.01562C 32.7012 8.51172 32.5957 8.14258 32.5371 7.9082C 32.3789 8.62891 32.1475 9.41699 31.8428 10.2725L 30.6826 13.6211L 34.4268 13.6211ZM 56.9531 15.5107C 56.9531 16.6533 56.54 17.5498 55.7139 18.2002C 54.8877 18.8506 53.748 19.1758 52.2949 19.1758C 50.8418 19.1758 49.6523 18.9502 48.7266 18.499L 48.7266 16.5127C 49.3125 16.7881 49.9336 17.0049 50.5898 17.1631C 51.252 17.3213 51.8672 17.4004 52.4355 17.4004C 53.2676 17.4004 53.8799 17.2422 54.2725 16.9258C 54.6709 16.6094 54.8701 16.1846 54.8701 15.6514C 54.8701 15.1709 54.6885 14.7637 54.3252 14.4297C 53.9619 14.0957 53.2119 13.7002 52.0752 13.2432C 50.9033 12.7686 50.0771 12.2266 49.5967 11.6172C 49.1162 11.0078 48.876 10.2754 48.876 9.41992C 48.876 8.34766 49.2568 7.50391 50.0186 6.88867C 50.7803 6.27344 51.8027 5.96582 53.0859 5.96582C 54.3164 5.96582 55.541 6.23535 56.7598 6.77441L 56.0918 8.48828C 54.9492 8.00781 53.9297 7.76758 53.0332 7.76758C 52.3535 7.76758 51.8379 7.91699 51.4863 8.21582C 51.1348 8.50879 50.959 8.89844 50.959 9.38477C 50.959 9.71875 51.0293 10.0059 51.1699 10.2461C 51.3105 10.4805 51.542 10.7031 51.8643 10.9141C 52.1865 11.125 52.7666 11.4033 53.6045 11.749C 54.5479 12.1416 55.2393 12.5078 55.6787 12.8477C 56.1182 13.1875 56.4404 13.5713 56.6455 13.999C 56.8506 14.4268 56.9531 14.9307 56.9531 15.5107ZM 69.5127 6.15039L 69.5127 14.4648C 69.5127 15.4141 69.3076 16.2461 68.8975 16.9609C 68.4932 17.6699 67.9043 18.2178 67.1309 18.6045C 66.3633 18.9854 65.4434 19.1758 64.3711 19.1758C 62.7773 19.1758 61.5381 18.7539 60.6533 17.9102C 59.7686 17.0664 59.3262 15.9062 59.3262 14.4297L 59.3262 6.15039L 61.4355 6.15039L 61.4355 14.2803C 61.4355 15.3408 61.6816 16.123 62.1738 16.627C 62.666 17.1309 63.4219 17.3828 64.4414 17.3828C 66.4219 17.3828 67.4121 16.3428 67.4121 14.2627L 67.4121 6.15039L 69.5127 6.15039ZM 81.3076 10.0352C 81.3076 11.377 80.8682 12.4053 79.9893 13.1201C 79.1104 13.835 77.8594 14.1924 76.2363 14.1924L 74.9004 14.1924L 74.9004 19L 72.7998 19L 72.7998 6.15039L 76.5 6.15039C 78.1055 6.15039 79.3066 6.47852 80.1035 7.13477C 80.9063 7.79102 81.3076 8.75781 81.3076 10.0352ZM 74.9004 12.4258L 76.0166 12.4258C 77.0947 12.4258 77.8857 12.2383 78.3896 11.8633C 78.8936 11.4883 79.1455 10.9023 79.1455 10.1055C 79.1455 9.36719 78.9199 8.81641 78.4688 8.45312C 78.0176 8.08984 77.3145 7.9082 76.3594 7.9082L 74.9004 7.9082L 74.9004 12.4258ZM 92.3818 10.0352C 92.3818 11.377 91.9424 12.4053 91.0635 13.1201C 90.1846 13.835 88.9336 14.1924 87.3105 14.1924L 85.9746 14.1924L 85.9746 19L 83.874 19L 83.874 6.15039L 87.5742 6.15039C 89.1797 6.15039 90.3809 6.47852 91.1777 7.13477C 91.9805 7.79102 92.3818 8.75781 92.3818 10.0352ZM 85.9746 12.4258L 87.0908 12.4258C 88.1689 12.4258 88.96 12.2383 89.4639 11.8633C 89.9678 11.4883 90.2197 10.9023 90.2197 10.1055C 90.2197 9.36719 89.9941 8.81641 89.543 8.45312C 89.0918 8.08984 88.3887 7.9082 87.4336 7.9082L 85.9746 7.9082L 85.9746 12.4258ZM 106.356 12.5576C 106.356 14.6494 105.832 16.2754 104.783 17.4355C 103.74 18.5957 102.261 19.1758 100.345 19.1758C 98.4053 19.1758 96.9141 18.6016 95.8711 17.4531C 94.834 16.2988 94.3154 14.6611 94.3154 12.54C 94.3154 10.4189 94.8369 8.79004 95.8799 7.65332C 96.9287 6.5166 98.4229 5.94824 100.362 5.94824C 102.272 5.94824 103.749 6.52539 104.792 7.67969C 105.835 8.83398 106.356 10.46 106.356 12.5576ZM 96.5479 12.5576C 96.5479 14.1396 96.8672 15.3408 97.5059 16.1611C 98.1445 16.9756 99.0908 17.3828 100.345 17.3828C 101.593 17.3828 102.533 16.9785 103.166 16.1699C 103.805 15.3613 104.124 14.1572 104.124 12.5576C 104.124 10.9814 103.808 9.78613 103.175 8.97168C 102.548 8.15723 101.61 7.75 100.362 7.75C 99.1025 7.75 98.1504 8.15723 97.5059 8.97168C 96.8672 9.78613 96.5479 10.9814 96.5479 12.5576ZM 111.217 12.127L 112.676 12.127C 113.654 12.127 114.363 11.9453 114.803 11.582C 115.242 11.2188 115.462 10.6797 115.462 9.96484C 115.462 9.23828 115.225 8.7168 114.75 8.40039C 114.275 8.08398 113.561 7.92578 112.605 7.92578L 111.217 7.92578L 111.217 12.127ZM 111.217 13.8672L 111.217 19L 109.116 19L 109.116 6.15039L 112.746 6.15039C 114.404 6.15039 115.632 6.46094 116.429 7.08203C 117.226 7.70312 117.624 8.64063 117.624 9.89453C 117.624 11.4941 116.792 12.6338 115.128 13.3135L 118.758 19L 116.367 19L 113.291 13.8672L 111.217 13.8672ZM 125.068 19L 122.968 19L 122.968 7.95215L 119.188 7.95215L 119.188 6.15039L 128.848 6.15039L 128.848 7.95215L 125.068 7.95215L 125.068 19Z"/>
<path id="path1_stroke" d="M 0 0L 34 0L 34 -1L 0 -1L 0 0Z"/>
<path id="path2_fill" d="M 35 17.5C 35 27.165 27.165 35 17.5 35C 7.83502 35 0 27.165 0 17.5C 0 7.83502 7.83502 0 17.5 0C 27.165 0 35 7.83502 35 17.5Z"/>
</defs>
</svg>